# xmcd CD database file
#
# Track frame offsets:
#	182
#	12682
#	26702
#	56737
#	69320
#	86242
#	101127
#	115877
#	139177
#	153122
#	167977
#	192177
#	208170
#	221490
#
# Disc length: 3270 seconds
#
# Revision: 4
# Processed by: cddbd v1.5.2PL0 Copyright (c) Steve Scherf et al.
# Submitted via: CDex 1.70beta2
#
DISCID=d00cc40e
DTITLE=Louis Armstrong - Unforgettable Louis Armstrong
DYEAR=1992
DGENRE=Blues
TTITLE0=Cabaret
TTITLE1=Kiss of fire
TTITLE2=I surrender dear
TTITLE3=Ko Ko Mo (with Gary Crosby)
TTITLE4=Skokiaan
TTITLE5=Baby, won't you please come home
TTITLE6=Dream a little dream of me
TTITLE7=That's for me
TTITLE8=You rascal you (with Louis Jordan) (I'll be glad when you're dead) 
TTITLE9=When it's sleepy time down South (Louis' longtime theme song)
TTITLE10=Indiana
TTITLE11=The hucklebuck
TTITLE12=That's a plenty
TTITLE13=Tin roof blues
EXTD=YEAR: 1992
EXTT0=(Ebb/Kander]\n
EXTT1=(Allen/Hill]\n
EXTT2=(Barris/Clifford]\n
EXTT3=(Wilson/Porter/Levy]\n
EXTT4=(Msarurgwa/Glazer]\n
EXTT5=(Williams/Warfield]\n
EXTT6=(Kahn/Andre/Schwandt]\n
EXTT7=(Rodgers/Hammerstein]\n
EXTT8=(Theard]\n
EXTT9=(Rene/Rene/Muse]\n
EXTT10=(McDonald/Hanley]\n
EXTT11=(Gibson/Alfred]\n
EXTT12=(Creamer/Williams]\n
EXTT13=(Pollack/Melrose/Rappolo/Wares/Brun\nes/Stitzler]\n
PLAYORDER=
